<svg xmlns="http://www.w3.org/2000/svg" xmlns:xlink="http://www.w3.org/1999/xlink" contentStyleType="text/css" data-diagram-type="SEQUENCE" height="774px" preserveAspectRatio="none" style="width:1541px;height:774px;background:#FFFFFF;" version="1.1" viewBox="0 0 1541 774" width="1541px" zoomAndPan="magnify"><?plantuml 1.2026.6?><defs/><g><g class="title" data-source-line="183"><text fill="#000000" font-family="sans-serif" font-size="14" font-weight="700" lengthAdjust="spacing" textLength="369.8584" x="582.2246" y="27.9951">Shelter Map - Registry Import Flow (sequence)</text></g><rect fill="none" height="179.6016" style="stroke:#000000;stroke-width:1.5;" width="796.2803" x="135.1606" y="339.5234"/><rect fill="none" height="119.3359" style="stroke:#000000;stroke-width:1.5;" width="776.2803" x="145.1606" y="392.7891"/><rect fill="none" height="112.5313" style="stroke:#000000;stroke-width:1.5;" width="1380.147" x="145.1606" y="533.125"/><g class="participant-lifeline" data-entity-uid="part1" data-qualified-name="RegistryScheduler" data-source-line="184" id="part1-lifeline"><g><title>RegistryScheduler</title><rect fill="#000000" fill-opacity="0.00000" height="573.1953" width="8" x="68.0151" y="118.5938"/><line style="stroke:#181818;stroke-width:0.5;stroke-dasharray:5,5;" x1="72" x2="72" y1="118.5938" y2="691.7891"/></g></g><g class="participant-lifeline" data-entity-uid="part2" data-qualified-name="SIS" data-source-line="185" id="part2-lifeline"><g><title>ShelterImportService</title><rect fill="#000000" fill-opacity="0.00000" height="573.1953" width="8" x="232.3237" y="118.5938"/><line style="stroke:#181818;stroke-width:0.5;stroke-dasharray:5,5;" x1="236.1606" x2="236.1606" y1="118.5938" y2="691.7891"/></g></g><g class="participant-lifeline" data-entity-uid="part3" data-qualified-name="RC" data-source-line="186" id="part3-lifeline"><g><title>ShelterRegistryClient</title><rect fill="#000000" fill-opacity="0.00000" height="573.1953" width="8" x="500.4482" y="118.5938"/><line style="stroke:#181818;stroke-width:0.5;stroke-dasharray:5,5;" x1="504.1519" x2="504.1519" y1="118.5938" y2="691.7891"/></g></g><g class="participant-lifeline" data-entity-uid="part4" data-qualified-name="P" data-source-line="187" id="part4-lifeline"><g><title>RegistryShelterParser</title><rect fill="#000000" fill-opacity="0.00000" height="573.1953" width="8" x="674.9961" y="118.5938"/><line style="stroke:#181818;stroke-width:0.5;stroke-dasharray:5,5;" x1="678.7446" x2="678.7446" y1="118.5938" y2="691.7891"/></g></g><g class="participant-lifeline" data-entity-uid="part5" data-qualified-name="REPO" data-source-line="188" id="part5-lifeline"><g><title>ShelterRepository</title><rect fill="#000000" fill-opacity="0.00000" height="573.1953" width="8" x="837.8442" y="118.5938"/><line style="stroke:#181818;stroke-width:0.5;stroke-dasharray:5,5;" x1="841.2476" x2="841.2476" y1="118.5938" y2="691.7891"/></g></g><g class="participant-lifeline" data-entity-uid="part6" data-qualified-name="DB" data-source-line="189" id="part6-lifeline"><g><title>PostgreSQL</title><rect fill="#000000" fill-opacity="0.00000" height="573.1953" width="8" x="1467.9312" y="118.5938"/><line style="stroke:#181818;stroke-width:0.5;stroke-dasharray:5,5;" x1="1471.5547" x2="1471.5547" y1="118.5938" y2="691.7891"/></g></g><g class="participant participant-head" data-entity-uid="part1" data-qualified-name="RegistryScheduler" data-source-line="184" id="part1-head"><text fill="#000000" font-family="sans-serif" font-size="14" lengthAdjust="spacing" textLength="128.0303" x="5" y="115.292">RegistryScheduler</text><ellipse cx="72.0151" cy="50.7969" fill="#E2E2F0" rx="8" ry="8" style="stroke:#181818;stroke-width:0.5;"/><path d="M72.0151,58.7969 L72.0151,85.7969 M59.0151,66.7969 L85.0151,66.7969 M72.0151,85.7969 L59.0151,100.7969 M72.0151,85.7969 L85.0151,100.7969" fill="none" style="stroke:#181818;stroke-width:0.5;"/></g><g class="participant participant-tail" data-entity-uid="part1" data-qualified-name="RegistryScheduler" data-source-line="184" id="part1-tail"><text fill="#000000" font-family="sans-serif" font-size="14" lengthAdjust="spacing" textLength="128.0303" x="5" y="703.7842">RegistryScheduler</text><ellipse cx="72.0151" cy="715.5859" fill="#E2E2F0" rx="8" ry="8" style="stroke:#181818;stroke-width:0.5;"/><path d="M72.0151,723.5859 L72.0151,750.5859 M59.0151,731.5859 L85.0151,731.5859 M72.0151,750.5859 L59.0151,765.5859 M72.0151,750.5859 L85.0151,765.5859" fill="none" style="stroke:#181818;stroke-width:0.5;"/></g><g class="participant participant-head" data-entity-uid="part2" data-qualified-name="SIS" data-source-line="185" id="part2-head"><rect fill="#E2E2F0" height="30.2969" rx="2.5" ry="2.5" style="stroke:#181818;stroke-width:0.5;" width="162.3262" x="155.1606" y="87.2969"/><text fill="#000000" font-family="sans-serif" font-size="14" lengthAdjust="spacing" textLength="148.3262" x="162.1606" y="107.292">ShelterImportService</text></g><g class="participant participant-tail" data-entity-uid="part2" data-qualified-name="SIS" data-source-line="185" id="part2-tail"><rect fill="#E2E2F0" height="30.2969" rx="2.5" ry="2.5" style="stroke:#181818;stroke-width:0.5;" width="162.3262" x="155.1606" y="690.7891"/><text fill="#000000" font-family="sans-serif" font-size="14" lengthAdjust="spacing" textLength="148.3262" x="162.1606" y="710.7842">ShelterImportService</text></g><g class="participant participant-head" data-entity-uid="part3" data-qualified-name="RC" data-source-line="186" id="part3-head"><rect fill="#E2E2F0" height="30.2969" rx="2.5" ry="2.5" style="stroke:#181818;stroke-width:0.5;" width="162.5928" x="423.1519" y="87.2969"/><text fill="#000000" font-family="sans-serif" font-size="14" lengthAdjust="spacing" textLength="148.5928" x="430.1519" y="107.292">ShelterRegistryClient</text></g><g class="participant participant-tail" data-entity-uid="part3" data-qualified-name="RC" data-source-line="186" id="part3-tail"><rect fill="#E2E2F0" height="30.2969" rx="2.5" ry="2.5" style="stroke:#181818;stroke-width:0.5;" width="162.5928" x="423.1519" y="690.7891"/><text fill="#000000" font-family="sans-serif" font-size="14" lengthAdjust="spacing" textLength="148.5928" x="430.1519" y="710.7842">ShelterRegistryClient</text></g><g class="participant participant-head" data-entity-uid="part4" data-qualified-name="P" data-source-line="187" id="part4-head"><rect fill="#E2E2F0" height="30.2969" rx="2.5" ry="2.5" style="stroke:#181818;stroke-width:0.5;" width="166.5029" x="595.7446" y="87.2969"/><text fill="#000000" font-family="sans-serif" font-size="14" lengthAdjust="spacing" textLength="152.5029" x="602.7446" y="107.292">RegistryShelterParser</text></g><g class="participant participant-tail" data-entity-uid="part4" data-qualified-name="P" data-source-line="187" id="part4-tail"><rect fill="#E2E2F0" height="30.2969" rx="2.5" ry="2.5" style="stroke:#181818;stroke-width:0.5;" width="166.5029" x="595.7446" y="690.7891"/><text fill="#000000" font-family="sans-serif" font-size="14" lengthAdjust="spacing" textLength="152.5029" x="602.7446" y="710.7842">RegistryShelterParser</text></g><g class="participant participant-head" data-entity-uid="part5" data-qualified-name="REPO" data-source-line="188" id="part5-head"><rect fill="#E2E2F0" height="30.2969" rx="2.5" ry="2.5" style="stroke:#181818;stroke-width:0.5;" width="139.1934" x="772.2476" y="87.2969"/><text fill="#000000" font-family="sans-serif" font-size="14" lengthAdjust="spacing" textLength="125.1934" x="779.2476" y="107.292">ShelterRepository</text></g><g class="participant participant-tail" data-entity-uid="part5" data-qualified-name="REPO" data-source-line="188" id="part5-tail"><rect fill="#E2E2F0" height="30.2969" rx="2.5" ry="2.5" style="stroke:#181818;stroke-width:0.5;" width="139.1934" x="772.2476" y="690.7891"/><text fill="#000000" font-family="sans-serif" font-size="14" lengthAdjust="spacing" textLength="125.1934" x="779.2476" y="710.7842">ShelterRepository</text></g><g class="participant participant-head" data-entity-uid="part6" data-qualified-name="DB" data-source-line="189" id="part6-head"><text fill="#000000" font-family="sans-serif" font-size="14" lengthAdjust="spacing" textLength="80.7529" x="1428.5547" y="115.292">PostgreSQL</text><path d="M1453.9312,66.2969 C1453.9312,56.2969 1471.9312,56.2969 1471.9312,56.2969 C1471.9312,56.2969 1489.9312,56.2969 1489.9312,66.2969 L1489.9312,92.2969 C1489.9312,102.2969 1471.9312,102.2969 1471.9312,102.2969 C1471.9312,102.2969 1453.9312,102.2969 1453.9312,92.2969 L1453.9312,66.2969" fill="#E2E2F0" style="stroke:#181818;stroke-width:0.5;"/><path d="M1453.9312,66.2969 C1453.9312,76.2969 1471.9312,76.2969 1471.9312,76.2969 C1471.9312,76.2969 1489.9312,76.2969 1489.9312,66.2969" fill="none" style="stroke:#181818;stroke-width:0.5;"/></g><g class="participant participant-tail" data-entity-uid="part6" data-qualified-name="DB" data-source-line="189" id="part6-tail"><text fill="#000000" font-family="sans-serif" font-size="14" lengthAdjust="spacing" textLength="80.7529" x="1428.5547" y="703.7842">PostgreSQL</text><path d="M1453.9312,717.0859 C1453.9312,707.0859 1471.9312,707.0859 1471.9312,707.0859 C1471.9312,707.0859 1489.9312,707.0859 1489.9312,717.0859 L1489.9312,743.0859 C1489.9312,753.0859 1471.9312,753.0859 1471.9312,753.0859 C1471.9312,753.0859 1453.9312,753.0859 1453.9312,743.0859 L1453.9312,717.0859" fill="#E2E2F0" style="stroke:#181818;stroke-width:0.5;"/><path d="M1453.9312,717.0859 C1453.9312,727.0859 1471.9312,727.0859 1471.9312,727.0859 C1471.9312,727.0859 1489.9312,727.0859 1489.9312,717.0859" fill="none" style="stroke:#181818;stroke-width:0.5;"/></g><g class="message" data-entity-1="part1" data-entity-2="part2" data-source-line="191" id="msg1"><polygon fill="#181818" points="224.3237,145.7266,234.3237,149.7266,224.3237,153.7266,228.3237,149.7266" style="stroke:#181818;stroke-width:1;stroke-linejoin:miter;stroke-miterlimit:10;"/><line style="stroke:#181818;stroke-width:1;" x1="72.0151" x2="230.3237" y1="149.7266" y2="149.7266"/><text fill="#000000" font-family="sans-serif" font-size="13" lengthAdjust="spacing" textLength="140.3086" x="79.0151" y="144.6606">importFromRegistry()</text></g><g class="message" data-entity-1="part2" data-entity-2="part3" data-source-line="192" id="msg2"><polygon fill="#181818" points="492.4482,174.8594,502.4482,178.8594,492.4482,182.8594,496.4482,178.8594" style="stroke:#181818;stroke-width:1;stroke-linejoin:miter;stroke-miterlimit:10;"/><line style="stroke:#181818;stroke-width:1;" x1="236.3237" x2="498.4482" y1="178.8594" y2="178.8594"/><text fill="#000000" font-family="sans-serif" font-size="13" lengthAdjust="spacing" textLength="59.3188" x="243.3237" y="173.7935">fetchAll()</text></g><g class="message" data-entity-1="part3" data-entity-2="part2" data-source-line="193" id="msg3"><polygon fill="#181818" points="247.3237,203.9922,237.3237,207.9922,247.3237,211.9922,243.3237,207.9922" style="stroke:#181818;stroke-width:1;stroke-linejoin:miter;stroke-miterlimit:10;"/><line style="stroke:#181818;stroke-width:1;stroke-dasharray:2,2;" x1="241.3237" x2="503.4482" y1="207.9922" y2="207.9922"/><text fill="#000000" font-family="sans-serif" font-size="13" lengthAdjust="spacing" textLength="167.9146" x="253.3237" y="202.9263">List&lt;RegistryShelterDto&gt;</text></g><g class="message" data-entity-1="part2" data-entity-2="part3" data-source-line="194" id="msg4"><polygon fill="#181818" points="492.4482,233.125,502.4482,237.125,492.4482,241.125,496.4482,237.125" style="stroke:#181818;stroke-width:1;stroke-linejoin:miter;stroke-miterlimit:10;"/><line style="stroke:#181818;stroke-width:1;" x1="236.3237" x2="498.4482" y1="237.125" y2="237.125"/><text fill="#000000" font-family="sans-serif" font-size="13" lengthAdjust="spacing" textLength="53.5996" x="243.3237" y="232.0591">source()</text></g><g class="message" data-entity-1="part3" data-entity-2="part2" data-source-line="195" id="msg5"><polygon fill="#181818" points="247.3237,262.2578,237.3237,266.2578,247.3237,270.2578,243.3237,266.2578" style="stroke:#181818;stroke-width:1;stroke-linejoin:miter;stroke-miterlimit:10;"/><line style="stroke:#181818;stroke-width:1;stroke-dasharray:2,2;" x1="241.3237" x2="503.4482" y1="266.2578" y2="266.2578"/><text fill="#000000" font-family="sans-serif" font-size="13" lengthAdjust="spacing" textLength="244.1245" x="253.3237" y="261.1919">fetchedSource (PAASETEAMET today)</text></g><g class="message" data-entity-1="part2" data-entity-2="part4" data-source-line="196" id="msg6"><polygon fill="#181818" points="666.9961,291.3906,676.9961,295.3906,666.9961,299.3906,670.9961,295.3906" style="stroke:#181818;stroke-width:1;stroke-linejoin:miter;stroke-miterlimit:10;"/><line style="stroke:#181818;stroke-width:1;" x1="236.3237" x2="672.9961" y1="295.3906" y2="295.3906"/><text fill="#000000" font-family="sans-serif" font-size="13" lengthAdjust="spacing" textLength="74.5532" x="243.3237" y="290.3247">parse(dtos)</text></g><g class="message" data-entity-1="part4" data-entity-2="part2" data-source-line="197" id="msg7"><polygon fill="#181818" points="247.3237,320.5234,237.3237,324.5234,247.3237,328.5234,243.3237,324.5234" style="stroke:#181818;stroke-width:1;stroke-linejoin:miter;stroke-miterlimit:10;"/><line style="stroke:#181818;stroke-width:1;stroke-dasharray:2,2;" x1="241.3237" x2="677.9961" y1="324.5234" y2="324.5234"/><text fill="#000000" font-family="sans-serif" font-size="13" lengthAdjust="spacing" textLength="91.0508" x="253.3237" y="319.4575">List&lt;Shelter&gt;</text></g><path d="M135.1606,339.5234 L211.7847,339.5234 L211.7847,346.6563 L201.7847,356.6563 L135.1606,356.6563 L135.1606,339.5234" fill="#EEEEEE" style="stroke:#000000;stroke-width:1.5;"/><rect fill="none" height="179.6016" style="stroke:#000000;stroke-width:1.5;" width="796.2803" x="135.1606" y="339.5234"/><text fill="#000000" font-family="sans-serif" font-size="13" font-weight="700" lengthAdjust="spacing" textLength="31.624" x="150.1606" y="352.5903">loop</text><text fill="#000000" font-family="sans-serif" font-size="11" font-weight="700" lengthAdjust="spacing" textLength="86.8721" x="226.7847" y="351.7339">[each shelter]</text><g class="message" data-entity-1="part2" data-entity-2="part5" data-source-line="199" id="msg8"><polygon fill="#181818" points="829.8442,373.7891,839.8442,377.7891,829.8442,381.7891,833.8442,377.7891" style="stroke:#181818;stroke-width:1;stroke-linejoin:miter;stroke-miterlimit:10;"/><line style="stroke:#181818;stroke-width:1;" x1="236.3237" x2="835.8442" y1="377.7891" y2="377.7891"/><text fill="#000000" font-family="sans-serif" font-size="13" lengthAdjust="spacing" textLength="183.7202" x="243.3237" y="372.7231">findByExternalId(externalId)</text></g><path d="M145.1606,392.7891 L209.6035,392.7891 L209.6035,399.9219 L199.6035,409.9219 L145.1606,409.9219 L145.1606,392.7891" fill="#EEEEEE" style="stroke:#000000;stroke-width:1.5;"/><rect fill="none" height="119.3359" style="stroke:#000000;stroke-width:1.5;" width="776.2803" x="145.1606" y="392.7891"/><text fill="#000000" font-family="sans-serif" font-size="13" font-weight="700" lengthAdjust="spacing" textLength="19.4429" x="160.1606" y="405.856">alt</text><text fill="#000000" font-family="sans-serif" font-size="11" font-weight="700" lengthAdjust="spacing" textLength="59.6621" x="224.6035" y="404.9995">[existing]</text><g class="message" data-entity-1="part5" data-entity-2="part2" data-source-line="201" id="msg9"><polygon fill="#181818" points="247.3237,427.0547,237.3237,431.0547,247.3237,435.0547,243.3237,431.0547" style="stroke:#181818;stroke-width:1;stroke-linejoin:miter;stroke-miterlimit:10;"/><line style="stroke:#181818;stroke-width:1;stroke-dasharray:2,2;" x1="241.3237" x2="840.8442" y1="431.0547" y2="431.0547"/><text fill="#000000" font-family="sans-serif" font-size="13" lengthAdjust="spacing" textLength="126.8325" x="253.3237" y="425.9888">Optional.of(shelter)</text></g><g class="message" data-entity-1="part2" data-entity-2="part5" data-source-line="202" id="msg10"><polygon fill="#181818" points="829.8442,456.1875,839.8442,460.1875,829.8442,464.1875,833.8442,460.1875" style="stroke:#181818;stroke-width:1;stroke-linejoin:miter;stroke-miterlimit:10;"/><line style="stroke:#181818;stroke-width:1;" x1="236.3237" x2="835.8442" y1="460.1875" y2="460.1875"/><text fill="#000000" font-family="sans-serif" font-size="13" lengthAdjust="spacing" textLength="110.7476" x="243.3237" y="455.1216">saveAll(updated)</text></g><line style="stroke:#000000;stroke-width:1;stroke-dasharray:2,2;" x1="145.1606" x2="921.4409" y1="469.1875" y2="469.1875"/><text fill="#000000" font-family="sans-serif" font-size="11" font-weight="700" lengthAdjust="spacing" textLength="35.5083" x="150.1606" y="479.3979">[new]</text><g class="message" data-entity-1="part2" data-entity-2="part5" data-source-line="204" id="msg11"><polygon fill="#181818" points="829.8442,500.125,839.8442,504.125,829.8442,508.125,833.8442,504.125" style="stroke:#181818;stroke-width:1;stroke-linejoin:miter;stroke-miterlimit:10;"/><line style="stroke:#181818;stroke-width:1;" x1="236.3237" x2="835.8442" y1="504.125" y2="504.125"/><text fill="#000000" font-family="sans-serif" font-size="13" lengthAdjust="spacing" textLength="106.4946" x="243.3237" y="499.0591">saveAll(created)</text></g><path d="M145.1606,533.125 L209.6035,533.125 L209.6035,540.2578 L199.6035,550.2578 L145.1606,550.2578 L145.1606,533.125" fill="#EEEEEE" style="stroke:#000000;stroke-width:1.5;"/><rect fill="none" height="112.5313" style="stroke:#000000;stroke-width:1.5;" width="1380.147" x="145.1606" y="533.125"/><text fill="#000000" font-family="sans-serif" font-size="13" font-weight="700" lengthAdjust="spacing" textLength="19.4429" x="160.1606" y="546.1919">alt</text><text fill="#000000" font-family="sans-serif" font-size="11" font-weight="700" lengthAdjust="spacing" textLength="222.938" x="224.6035" y="545.3354">[fetchedIds empty (zero-row fetch)]</text><path d="M241,555.2578 L241,580.2578 L604,580.2578 L604,565.2578 L594,555.2578 L241,555.2578" fill="#FEFFDD" style="stroke:#181818;stroke-width:0.5;"/><path d="M594,555.2578 L594,565.2578 L604,565.2578 L594,555.2578" fill="#FEFFDD" style="stroke:#181818;stroke-width:0.5;"/><text fill="#000000" font-family="sans-serif" font-size="13" lengthAdjust="spacing" textLength="342.2085" x="247" y="572.3247">delisting SKIPPED - existing rows retained (log.warn)</text><line style="stroke:#000000;stroke-width:1;stroke-dasharray:2,2;" x1="145.1606" x2="1525.3076" y1="586.3906" y2="586.3906"/><g class="message" data-entity-1="part2" data-entity-2="part5" data-source-line="210" id="msg12"><polygon fill="#181818" points="829.8442,604.5234,839.8442,608.5234,829.8442,612.5234,833.8442,608.5234" style="stroke:#181818;stroke-width:1;stroke-linejoin:miter;stroke-miterlimit:10;"/><line style="stroke:#181818;stroke-width:1;" x1="236.3237" x2="835.8442" y1="608.5234" y2="608.5234"/><text fill="#000000" font-family="sans-serif" font-size="13" lengthAdjust="spacing" textLength="409.8047" x="243.3237" y="603.4575">deleteBySourceAndExternalIdNotIn(fetchedSource, fetchedIds)</text></g><g class="message" data-entity-1="part5" data-entity-2="part6" data-source-line="211" id="msg13"><polygon fill="#181818" points="1459.9312,633.6563,1469.9312,637.6563,1459.9312,641.6563,1463.9312,637.6563" style="stroke:#181818;stroke-width:1;stroke-linejoin:miter;stroke-miterlimit:10;"/><line style="stroke:#181818;stroke-width:1;" x1="841.8442" x2="1465.9312" y1="637.6563" y2="637.6563"/><text fill="#000000" font-family="sans-serif" font-size="13" lengthAdjust="spacing" textLength="606.0869" x="848.8442" y="632.5903">DELETE fetchedSource rows missing from the latest fetch (USER + other sources untouched)</text></g><g class="message" data-entity-1="part2" data-entity-2="part1" data-source-line="213" id="msg14"><polygon fill="#181818" points="83.0151,669.7891,73.0151,673.7891,83.0151,677.7891,79.0151,673.7891" style="stroke:#181818;stroke-width:1;stroke-linejoin:miter;stroke-miterlimit:10;"/><line style="stroke:#181818;stroke-width:1;stroke-dasharray:2,2;" x1="77.0151" x2="235.3237" y1="673.7891" y2="673.7891"/><text fill="#000000" font-family="sans-serif" font-size="13" lengthAdjust="spacing" textLength="83.897" x="89.0151" y="668.7231">ImportResult</text></g><?plantuml-src VLFRRjim37ttLn1vih6b7n0C0N9n0MFfwiNT1sWM4mjG94-YctfVFqfst2RPzc104WyF3mzfKgGHgWOreOCdqS8SzdXKdbmFnQcrZk1HspEa7dzrQ6hC4b6JTHEggXkKdKQNjCAHgbKh3C5if1meAdIlgiOP20zLKVqLUU7RQ8M68dI_kKPE9OUCKZYFBYBBVr2srYiMsmzqUVcSI47Yf_08iz9wEZgilkzYTBjEahkUOBuCWc41AZRowEpf0agp98GOiTymu81KDokj-Pdlyobnn-0lDygtP9TNoTvshiRRr4Y9ief1IClLgifVyjLJ_W9afUWd0IM3s-16AidwB2blwuzrbucsjWKKTGD-U4e0BaBOdb1K6RdkypUE6Q4BcU9qp1WiD06-CQSoHxx2aFPUxhabPHdzO0_fM2ABkEigNhnYCAjhUI0OcL7pL0oU_uEk7Kve8vFm1JsZJuNqWAUMUaX_exDpnsiRGm5lB24uTMm8x27GBq2Y7lg0wcjHblcMT__I6d2o1uSab449gRR7XxDm9ak2p3lJc0e9r_qmgfMHx_vzirIOz6gKdpye3je62vUyWaorpNSyv9lPHpKdvNsGTk0b16eGD9lXn_OX_L7bU_W4bYDkN2WFdI7R1Q8ikXLL1zbtYxuO__Oz-axJ7m00?></g></svg>