<svg xmlns="http://www.w3.org/2000/svg" xmlns:xlink="http://www.w3.org/1999/xlink" contentStyleType="text/css" height="1405px" preserveAspectRatio="none" style="width:1472px;height:1405px;background:#FFFFFF;" version="1.1" viewBox="0 0 1472 1405" width="1472px" zoomAndPan="magnify"><title>Map &amp; Browse Flow - Public Shelter List + Leaflet Map (M4)</title><defs/><g><text fill="#000000" font-family="sans-serif" font-size="14" font-weight="bold" lengthAdjust="spacing" textLength="470.7705" x="496.9958" y="27.9951">Map &amp; Browse Flow - Public Shelter List + Leaflet Map (M4)</text><rect fill="none" height="177.6016" style="stroke:#000000;stroke-width:1.5;" width="1445.7622" x="10" y="949.3125"/><line style="stroke:#181818;stroke-width:0.5;stroke-dasharray:5.0,5.0;" x1="45" x2="45" y1="118.5938" y2="1324.7109"/><line style="stroke:#181818;stroke-width:0.5;stroke-dasharray:5.0,5.0;" x1="409.019" x2="409.019" y1="118.5938" y2="1324.7109"/><line style="stroke:#181818;stroke-width:0.5;stroke-dasharray:5.0,5.0;" x1="652.5806" x2="652.5806" y1="118.5938" y2="1324.7109"/><line style="stroke:#181818;stroke-width:0.5;stroke-dasharray:5.0,5.0;" x1="1023.2847" x2="1023.2847" y1="118.5938" y2="1324.7109"/><line style="stroke:#181818;stroke-width:0.5;stroke-dasharray:5.0,5.0;" x1="1128.1685" x2="1128.1685" y1="118.5938" y2="1324.7109"/><line style="stroke:#181818;stroke-width:0.5;stroke-dasharray:5.0,5.0;" x1="1225.8228" x2="1225.8228" y1="118.5938" y2="1324.7109"/><line style="stroke:#181818;stroke-width:0.5;stroke-dasharray:5.0,5.0;" x1="1355.8472" x2="1355.8472" y1="118.5938" y2="1324.7109"/><text fill="#000000" font-family="sans-serif" font-size="14" lengthAdjust="spacing" textLength="44.4609" x="20" y="115.292">Visitor</text><ellipse cx="45.2305" cy="50.7969" fill="#E2E2F0" rx="8" ry="8" style="stroke:#181818;stroke-width:0.5;"/><path d="M45.2305,58.7969 L45.2305,85.7969 M32.2305,66.7969 L58.2305,66.7969 M45.2305,85.7969 L32.2305,100.7969 M45.2305,85.7969 L58.2305,100.7969 " fill="none" style="stroke:#181818;stroke-width:0.5;"/><text fill="#000000" font-family="sans-serif" font-size="14" lengthAdjust="spacing" textLength="44.4609" x="20" y="1336.7061">Visitor</text><ellipse cx="45.2305" cy="1348.5078" fill="#E2E2F0" rx="8" ry="8" style="stroke:#181818;stroke-width:0.5;"/><path d="M45.2305,1356.5078 L45.2305,1383.5078 M32.2305,1364.5078 L58.2305,1364.5078 M45.2305,1383.5078 L32.2305,1398.5078 M45.2305,1383.5078 L58.2305,1398.5078 " fill="none" style="stroke:#181818;stroke-width:0.5;"/><rect fill="#E2E2F0" height="30.2969" rx="2.5" ry="2.5" style="stroke:#181818;stroke-width:0.5;" width="78.0664" x="370.019" y="87.2969"/><text fill="#000000" font-family="sans-serif" font-size="14" lengthAdjust="spacing" textLength="64.0664" x="377.019" y="107.292">MapPage</text><rect fill="#E2E2F0" height="30.2969" rx="2.5" ry="2.5" style="stroke:#181818;stroke-width:0.5;" width="78.0664" x="370.019" y="1323.7109"/><text fill="#000000" font-family="sans-serif" font-size="14" lengthAdjust="spacing" textLength="64.0664" x="377.019" y="1343.7061">MapPage</text><rect fill="#E2E2F0" height="30.2969" rx="2.5" ry="2.5" style="stroke:#181818;stroke-width:0.5;" width="125.9658" x="590.5806" y="87.2969"/><text fill="#000000" font-family="sans-serif" font-size="14" lengthAdjust="spacing" textLength="111.9658" x="597.5806" y="107.292">ShelterGateway</text><rect fill="#E2E2F0" height="30.2969" rx="2.5" ry="2.5" style="stroke:#181818;stroke-width:0.5;" width="125.9658" x="590.5806" y="1323.7109"/><text fill="#000000" font-family="sans-serif" font-size="14" lengthAdjust="spacing" textLength="111.9658" x="597.5806" y="1343.7061">ShelterGateway</text><rect fill="#E2E2F0" height="30.2969" rx="2.5" ry="2.5" style="stroke:#181818;stroke-width:0.5;" width="76.8838" x="985.2847" y="87.2969"/><text fill="#000000" font-family="sans-serif" font-size="14" lengthAdjust="spacing" textLength="62.8838" x="992.2847" y="107.292">ApiClient</text><rect fill="#E2E2F0" height="30.2969" rx="2.5" ry="2.5" style="stroke:#181818;stroke-width:0.5;" width="76.8838" x="985.2847" y="1323.7109"/><text fill="#000000" font-family="sans-serif" font-size="14" lengthAdjust="spacing" textLength="62.8838" x="992.2847" y="1343.7061">ApiClient</text><rect fill="#E2E2F0" height="30.2969" rx="2.5" ry="2.5" style="stroke:#181818;stroke-width:0.5;" width="113.6543" x="1072.1685" y="87.2969"/><text fill="#000000" font-family="sans-serif" font-size="14" lengthAdjust="spacing" textLength="99.6543" x="1079.1685" y="107.292">LeafletService</text><rect fill="#E2E2F0" height="30.2969" rx="2.5" ry="2.5" style="stroke:#181818;stroke-width:0.5;" width="113.6543" x="1072.1685" y="1323.7109"/><text fill="#000000" font-family="sans-serif" font-size="14" lengthAdjust="spacing" textLength="99.6543" x="1079.1685" y="1343.7061">LeafletService</text><rect fill="#E2E2F0" height="30.2969" rx="2.5" ry="2.5" style="stroke:#181818;stroke-width:0.5;" width="61.0244" x="1195.8228" y="87.2969"/><text fill="#000000" font-family="sans-serif" font-size="14" lengthAdjust="spacing" textLength="47.0244" x="1202.8228" y="107.292">Router</text><rect fill="#E2E2F0" height="30.2969" rx="2.5" ry="2.5" style="stroke:#181818;stroke-width:0.5;" width="61.0244" x="1195.8228" y="1323.7109"/><text fill="#000000" font-family="sans-serif" font-size="14" lengthAdjust="spacing" textLength="47.0244" x="1202.8228" y="1343.7061">Router</text><text fill="#000000" font-family="sans-serif" font-size="14" lengthAdjust="spacing" textLength="172.915" x="1266.8472" y="115.292">Spring Boot /api/shelters</text><path d="M1338.3047,66.2969 C1338.3047,56.2969 1356.3047,56.2969 1356.3047,56.2969 C1356.3047,56.2969 1374.3047,56.2969 1374.3047,66.2969 L1374.3047,92.2969 C1374.3047,102.2969 1356.3047,102.2969 1356.3047,102.2969 C1356.3047,102.2969 1338.3047,102.2969 1338.3047,92.2969 L1338.3047,66.2969 " fill="#E2E2F0" style="stroke:#181818;stroke-width:1.5;"/><path d="M1338.3047,66.2969 C1338.3047,76.2969 1356.3047,76.2969 1356.3047,76.2969 C1356.3047,76.2969 1374.3047,76.2969 1374.3047,66.2969 " fill="none" style="stroke:#181818;stroke-width:1.5;"/><text fill="#000000" font-family="sans-serif" font-size="14" lengthAdjust="spacing" textLength="172.915" x="1266.8472" y="1336.7061">Spring Boot /api/shelters</text><path d="M1338.3047,1350.0078 C1338.3047,1340.0078 1356.3047,1340.0078 1356.3047,1340.0078 C1356.3047,1340.0078 1374.3047,1340.0078 1374.3047,1350.0078 L1374.3047,1376.0078 C1374.3047,1386.0078 1356.3047,1386.0078 1356.3047,1386.0078 C1356.3047,1386.0078 1338.3047,1386.0078 1338.3047,1376.0078 L1338.3047,1350.0078 " fill="#E2E2F0" style="stroke:#181818;stroke-width:1.5;"/><path d="M1338.3047,1350.0078 C1338.3047,1360.0078 1356.3047,1360.0078 1356.3047,1360.0078 C1356.3047,1360.0078 1374.3047,1360.0078 1374.3047,1350.0078 " fill="none" style="stroke:#181818;stroke-width:1.5;"/><rect fill="#EEEEEE" height="3" style="stroke:#EEEEEE;stroke-width:1;" width="1465.7622" x="0" y="149.1602"/><line style="stroke:#000000;stroke-width:1;" x1="0" x2="1465.7622" y1="149.1602" y2="149.1602"/><line style="stroke:#000000;stroke-width:1;" x1="0" x2="1465.7622" y1="152.1602" y2="152.1602"/><rect fill="#EEEEEE" height="23.1328" style="stroke:#000000;stroke-width:2;" width="162.7383" x="651.512" y="138.5938"/><text fill="#000000" font-family="sans-serif" font-size="13" font-weight="bold" lengthAdjust="spacing" textLength="144.2124" x="657.512" y="154.6606">Default route: /map</text><path d="M199,176.7266 L199,231.7266 L617,231.7266 L617,186.7266 L607,176.7266 L199,176.7266 " fill="#FEFFDD" style="stroke:#181818;stroke-width:0.5;"/><path d="M607,176.7266 L607,186.7266 L617,186.7266 L607,176.7266 " fill="#FEFFDD" style="stroke:#181818;stroke-width:0.5;"/><text fill="#000000" font-family="sans-serif" font-size="13" lengthAdjust="spacing" textLength="397.23" x="205" y="193.7935">Public - no auth. GET /api/shelters?source=ALL returns every</text><text fill="#000000" font-family="sans-serif" font-size="13" lengthAdjust="spacing" textLength="394.5894" x="205" y="208.9263">shelter (registry + user). Estonia-scale data (hundreds) - the</text><text fill="#000000" font-family="sans-serif" font-size="13" lengthAdjust="spacing" textLength="372.436" x="205" y="224.0591">backend deliberately has no paging yet (fetch-all is fine).</text><polygon fill="#181818" points="397.0522,254.2578,407.0522,258.2578,397.0522,262.2578,401.0522,258.2578" style="stroke:#181818;stroke-width:1;"/><line style="stroke:#181818;stroke-width:1;" x1="45.2305" x2="403.0522" y1="258.2578" y2="258.2578"/><text fill="#000000" font-family="sans-serif" font-size="13" lengthAdjust="spacing" textLength="69.8369" x="52.2305" y="253.1919">open /map</text><polygon fill="#181818" points="641.5635,283.3906,651.5635,287.3906,641.5635,291.3906,645.5635,287.3906" style="stroke:#181818;stroke-width:1;"/><line style="stroke:#181818;stroke-width:1;" x1="409.0522" x2="647.5635" y1="287.3906" y2="287.3906"/><text fill="#000000" font-family="sans-serif" font-size="13" lengthAdjust="spacing" textLength="52.6157" x="416.0522" y="282.3247">list(ALL)</text><polygon fill="#181818" points="1011.7266,312.5234,1021.7266,316.5234,1011.7266,320.5234,1015.7266,316.5234" style="stroke:#181818;stroke-width:1;"/><line style="stroke:#181818;stroke-width:1;" x1="653.5635" x2="1017.7266" y1="316.5234" y2="316.5234"/><text fill="#000000" font-family="sans-serif" font-size="13" lengthAdjust="spacing" textLength="305.2207" x="660.5635" y="311.4575">get&lt;ShelterDto[]&gt;('/api/shelters?source=ALL')</text><polygon fill="#181818" points="1344.3047,341.6563,1354.3047,345.6563,1344.3047,349.6563,1348.3047,345.6563" style="stroke:#181818;stroke-width:1;"/><line style="stroke:#181818;stroke-width:1;" x1="1023.7266" x2="1350.3047" y1="345.6563" y2="345.6563"/><text fill="#000000" font-family="sans-serif" font-size="13" lengthAdjust="spacing" textLength="195.4126" x="1030.7266" y="340.5903">GET /api/shelters?source=ALL</text><polygon fill="#181818" points="1034.7266,370.7891,1024.7266,374.7891,1034.7266,378.7891,1030.7266,374.7891" style="stroke:#181818;stroke-width:1;"/><line style="stroke:#181818;stroke-width:1;stroke-dasharray:2.0,2.0;" x1="1028.7266" x2="1355.3047" y1="374.7891" y2="374.7891"/><text fill="#000000" font-family="sans-serif" font-size="13" lengthAdjust="spacing" textLength="79.7456" x="1040.7266" y="369.7231">ShelterDto[]</text><polygon fill="#181818" points="664.5635,399.9219,654.5635,403.9219,664.5635,407.9219,660.5635,403.9219" style="stroke:#181818;stroke-width:1;"/><line style="stroke:#181818;stroke-width:1;stroke-dasharray:2.0,2.0;" x1="658.5635" x2="1022.7266" y1="403.9219" y2="403.9219"/><text fill="#000000" font-family="sans-serif" font-size="13" lengthAdjust="spacing" textLength="75.7402" x="670.5635" y="398.856">typed array</text><polygon fill="#181818" points="420.0522,429.0547,410.0522,433.0547,420.0522,437.0547,416.0522,433.0547" style="stroke:#181818;stroke-width:1;"/><line style="stroke:#181818;stroke-width:1;stroke-dasharray:2.0,2.0;" x1="414.0522" x2="652.5635" y1="433.0547" y2="433.0547"/><text fill="#000000" font-family="sans-serif" font-size="13" lengthAdjust="spacing" textLength="47.252" x="426.0522" y="427.9888">models</text><polygon fill="#181818" points="1116.9956,458.1875,1126.9956,462.1875,1116.9956,466.1875,1120.9956,462.1875" style="stroke:#181818;stroke-width:1;"/><line style="stroke:#181818;stroke-width:1;" x1="409.0522" x2="1122.9956" y1="462.1875" y2="462.1875"/><text fill="#000000" font-family="sans-serif" font-size="13" lengthAdjust="spacing" textLength="158.4692" x="416.0522" y="457.1216">renderShelters(shelters)</text><path d="M904,475.1875 L904,530.1875 L1353,530.1875 L1353,485.1875 L1343,475.1875 L904,475.1875 " fill="#FEFFDD" style="stroke:#181818;stroke-width:0.5;"/><path d="M1343,475.1875 L1343,485.1875 L1353,485.1875 L1343,475.1875 " fill="#FEFFDD" style="stroke:#181818;stroke-width:0.5;"/><text fill="#000000" font-family="sans-serif" font-size="13" lengthAdjust="spacing" textLength="415.8477" x="910" y="492.2544">leaflet map centered on Estonia (lat ~58.6, lng ~25.0, zoom 7).</text><text fill="#000000" font-family="sans-serif" font-size="13" lengthAdjust="spacing" textLength="428.4414" x="910" y="507.3872">One L.marker per shelter; markers for USER vs REGISTRY sources</text><text fill="#000000" font-family="sans-serif" font-size="13" lengthAdjust="spacing" textLength="343.9985" x="910" y="522.52">get distinct icons; no clustering needed at this scale.</text><polygon fill="#181818" points="420.0522,552.7188,410.0522,556.7188,420.0522,560.7188,416.0522,556.7188" style="stroke:#181818;stroke-width:1;"/><line style="stroke:#181818;stroke-width:1;stroke-dasharray:2.0,2.0;" x1="414.0522" x2="1127.9956" y1="556.7188" y2="556.7188"/><text fill="#000000" font-family="sans-serif" font-size="13" lengthAdjust="spacing" textLength="131.752" x="426.0522" y="551.6528">markers layer ready</text><polygon fill="#181818" points="56.2305,581.8516,46.2305,585.8516,56.2305,589.8516,52.2305,585.8516" style="stroke:#181818;stroke-width:1;"/><line style="stroke:#181818;stroke-width:1;stroke-dasharray:2.0,2.0;" x1="50.2305" x2="408.0522" y1="585.8516" y2="585.8516"/><text fill="#000000" font-family="sans-serif" font-size="13" lengthAdjust="spacing" textLength="119.4629" x="62.2305" y="580.7856">map + sidebar list</text><rect fill="#EEEEEE" height="3" style="stroke:#EEEEEE;stroke-width:1;" width="1465.7622" x="0" y="614.418"/><line style="stroke:#000000;stroke-width:1;" x1="0" x2="1465.7622" y1="614.418" y2="614.418"/><line style="stroke:#000000;stroke-width:1;" x1="0" x2="1465.7622" y1="617.418" y2="617.418"/><rect fill="#EEEEEE" height="23.1328" style="stroke:#000000;stroke-width:2;" width="109.5449" x="678.1086" y="603.8516"/><text fill="#000000" font-family="sans-serif" font-size="13" font-weight="bold" lengthAdjust="spacing" textLength="91.019" x="684.1086" y="619.9185">Source filter</text><polygon fill="#181818" points="397.0522,654.1172,407.0522,658.1172,397.0522,662.1172,401.0522,658.1172" style="stroke:#181818;stroke-width:1;"/><line style="stroke:#181818;stroke-width:1;" x1="45.2305" x2="403.0522" y1="658.1172" y2="658.1172"/><text fill="#000000" font-family="sans-serif" font-size="13" lengthAdjust="spacing" textLength="201.3604" x="52.2305" y="653.0513">click "Registry / User / All" chip</text><polygon fill="#181818" points="641.5635,683.25,651.5635,687.25,641.5635,691.25,645.5635,687.25" style="stroke:#181818;stroke-width:1;"/><line style="stroke:#181818;stroke-width:1;" x1="409.0522" x2="647.5635" y1="687.25" y2="687.25"/><text fill="#000000" font-family="sans-serif" font-size="13" lengthAdjust="spacing" textLength="220.5112" x="416.0522" y="682.1841">list(REGISTRY)   ' server-side filter</text><polygon fill="#181818" points="1011.7266,712.3828,1021.7266,716.3828,1011.7266,720.3828,1015.7266,716.3828" style="stroke:#181818;stroke-width:1;"/><line style="stroke:#181818;stroke-width:1;" x1="653.5635" x2="1017.7266" y1="716.3828" y2="716.3828"/><text fill="#000000" font-family="sans-serif" font-size="13" lengthAdjust="spacing" textLength="346.1631" x="660.5635" y="711.3169">get&lt;ShelterDto[]&gt;('/api/shelters?source=REGISTRY')</text><polygon fill="#181818" points="1344.3047,741.5156,1354.3047,745.5156,1344.3047,749.5156,1348.3047,745.5156" style="stroke:#181818;stroke-width:1;"/><line style="stroke:#181818;stroke-width:1;" x1="1023.7266" x2="1350.3047" y1="745.5156" y2="745.5156"/><text fill="#000000" font-family="sans-serif" font-size="13" lengthAdjust="spacing" textLength="236.355" x="1030.7266" y="740.4497">GET /api/shelters?source=REGISTRY</text><polygon fill="#181818" points="1034.7266,770.6484,1024.7266,774.6484,1034.7266,778.6484,1030.7266,774.6484" style="stroke:#181818;stroke-width:1;"/><line style="stroke:#181818;stroke-width:1;stroke-dasharray:2.0,2.0;" x1="1028.7266" x2="1355.3047" y1="774.6484" y2="774.6484"/><text fill="#000000" font-family="sans-serif" font-size="13" lengthAdjust="spacing" textLength="79.7456" x="1040.7266" y="769.5825">ShelterDto[]</text><polygon fill="#181818" points="420.0522,799.7813,410.0522,803.7813,420.0522,807.7813,416.0522,803.7813" style="stroke:#181818;stroke-width:1;"/><line style="stroke:#181818;stroke-width:1;stroke-dasharray:2.0,2.0;" x1="414.0522" x2="652.5635" y1="803.7813" y2="803.7813"/><text fill="#000000" font-family="sans-serif" font-size="13" lengthAdjust="spacing" textLength="47.252" x="426.0522" y="798.7153">models</text><polygon fill="#181818" points="1116.9956,828.9141,1126.9956,832.9141,1116.9956,836.9141,1120.9956,832.9141" style="stroke:#181818;stroke-width:1;"/><line style="stroke:#181818;stroke-width:1;" x1="409.0522" x2="1122.9956" y1="832.9141" y2="832.9141"/><text fill="#000000" font-family="sans-serif" font-size="13" lengthAdjust="spacing" textLength="162.4683" x="416.0522" y="827.8481">replaceMarkers(shelters)</text><polygon fill="#181818" points="420.0522,858.0469,410.0522,862.0469,420.0522,866.0469,416.0522,862.0469" style="stroke:#181818;stroke-width:1;"/><line style="stroke:#181818;stroke-width:1;stroke-dasharray:2.0,2.0;" x1="414.0522" x2="1127.9956" y1="862.0469" y2="862.0469"/><text fill="#000000" font-family="sans-serif" font-size="13" lengthAdjust="spacing" textLength="54.0566" x="426.0522" y="856.981">updated</text><polygon fill="#181818" points="56.2305,887.1797,46.2305,891.1797,56.2305,895.1797,52.2305,891.1797" style="stroke:#181818;stroke-width:1;"/><line style="stroke:#181818;stroke-width:1;stroke-dasharray:2.0,2.0;" x1="50.2305" x2="408.0522" y1="891.1797" y2="891.1797"/><text fill="#000000" font-family="sans-serif" font-size="13" lengthAdjust="spacing" textLength="104.2412" x="62.2305" y="886.1138">filtered markers</text><rect fill="#EEEEEE" height="3" style="stroke:#EEEEEE;stroke-width:1;" width="1465.7622" x="0" y="919.7461"/><line style="stroke:#000000;stroke-width:1;" x1="0" x2="1465.7622" y1="919.7461" y2="919.7461"/><line style="stroke:#000000;stroke-width:1;" x1="0" x2="1465.7622" y1="922.7461" y2="922.7461"/><rect fill="#EEEEEE" height="23.1328" style="stroke:#000000;stroke-width:2;" width="184.314" x="640.7241" y="909.1797"/><text fill="#000000" font-family="sans-serif" font-size="13" font-weight="bold" lengthAdjust="spacing" textLength="165.7881" x="646.7241" y="925.2466">Error / empty handling</text><path d="M10,949.3125 L74.4429,949.3125 L74.4429,956.4453 L64.4429,966.4453 L10,966.4453 L10,949.3125 " fill="#EEEEEE" style="stroke:#000000;stroke-width:1.5;"/><rect fill="none" height="177.6016" style="stroke:#000000;stroke-width:1.5;" width="1445.7622" x="10" y="949.3125"/><text fill="#000000" font-family="sans-serif" font-size="13" font-weight="bold" lengthAdjust="spacing" textLength="19.4429" x="25" y="962.3794">alt</text><text fill="#000000" font-family="sans-serif" font-size="11" font-weight="bold" lengthAdjust="spacing" textLength="143.0322" x="89.4429" y="961.5229">[backend unreachable]</text><polygon fill="#181818" points="1034.7266,983.5781,1024.7266,987.5781,1034.7266,991.5781,1030.7266,987.5781" style="stroke:#181818;stroke-width:1;"/><line style="stroke:#181818;stroke-width:1;stroke-dasharray:2.0,2.0;" x1="1028.7266" x2="1355.3047" y1="987.5781" y2="987.5781"/><text fill="#000000" font-family="sans-serif" font-size="13" lengthAdjust="spacing" textLength="107.7451" x="1040.7266" y="982.5122">connection error</text><polygon fill="#181818" points="420.0522,1012.7109,410.0522,1016.7109,420.0522,1020.7109,416.0522,1016.7109" style="stroke:#181818;stroke-width:1;"/><line style="stroke:#181818;stroke-width:1;stroke-dasharray:2.0,2.0;" x1="414.0522" x2="1022.7266" y1="1016.7109" y2="1016.7109"/><text fill="#000000" font-family="sans-serif" font-size="13" lengthAdjust="spacing" textLength="120.0278" x="426.0522" y="1011.645">ApiError (network)</text><polygon fill="#181818" points="56.2305,1041.8438,46.2305,1045.8438,56.2305,1049.8438,52.2305,1045.8438" style="stroke:#181818;stroke-width:1;"/><line style="stroke:#181818;stroke-width:1;stroke-dasharray:2.0,2.0;" x1="50.2305" x2="408.0522" y1="1045.8438" y2="1045.8438"/><text fill="#000000" font-family="sans-serif" font-size="13" lengthAdjust="spacing" textLength="339.8218" x="62.2305" y="1040.7778">banner "map unavailable - is the backend running?"</text><line style="stroke:#000000;stroke-width:1;stroke-dasharray:2.0,2.0;" x1="10" x2="1455.7622" y1="1054.8438" y2="1054.8438"/><text fill="#000000" font-family="sans-serif" font-size="11" font-weight="bold" lengthAdjust="spacing" textLength="91.0293" x="15" y="1065.0542">[zero shelters]</text><polygon fill="#181818" points="1034.7266,1085.7813,1024.7266,1089.7813,1034.7266,1093.7813,1030.7266,1089.7813" style="stroke:#181818;stroke-width:1;"/><line style="stroke:#181818;stroke-width:1;stroke-dasharray:2.0,2.0;" x1="1028.7266" x2="1355.3047" y1="1089.7813" y2="1089.7813"/><text fill="#000000" font-family="sans-serif" font-size="13" lengthAdjust="spacing" textLength="10.1436" x="1040.7266" y="1084.7153">[]</text><polygon fill="#181818" points="56.2305,1114.9141,46.2305,1118.9141,56.2305,1122.9141,52.2305,1118.9141" style="stroke:#181818;stroke-width:1;"/><line style="stroke:#181818;stroke-width:1;stroke-dasharray:2.0,2.0;" x1="50.2305" x2="408.0522" y1="1118.9141" y2="1118.9141"/><text fill="#000000" font-family="sans-serif" font-size="13" lengthAdjust="spacing" textLength="191.9404" x="62.2305" y="1113.8481">empty state "no shelters yet"</text><rect fill="#EEEEEE" height="3" style="stroke:#EEEEEE;stroke-width:1;" width="1465.7622" x="0" y="1154.4805"/><line style="stroke:#000000;stroke-width:1;" x1="0" x2="1465.7622" y1="1154.4805" y2="1154.4805"/><line style="stroke:#000000;stroke-width:1;" x1="0" x2="1465.7622" y1="1157.4805" y2="1157.4805"/><rect fill="#EEEEEE" height="23.1328" style="stroke:#000000;stroke-width:2;" width="103.502" x="681.1301" y="1143.9141"/><text fill="#000000" font-family="sans-serif" font-size="13" font-weight="bold" lengthAdjust="spacing" textLength="84.9761" x="687.1301" y="1159.981">Open detail</text><polygon fill="#181818" points="397.0522,1194.1797,407.0522,1198.1797,397.0522,1202.1797,401.0522,1198.1797" style="stroke:#181818;stroke-width:1;"/><line style="stroke:#181818;stroke-width:1;" x1="45.2305" x2="403.0522" y1="1198.1797" y2="1198.1797"/><text fill="#000000" font-family="sans-serif" font-size="13" lengthAdjust="spacing" textLength="158.8882" x="52.2305" y="1193.1138">click marker (or list row)</text><polygon fill="#181818" points="1214.335,1223.3125,1224.335,1227.3125,1214.335,1231.3125,1218.335,1227.3125" style="stroke:#181818;stroke-width:1;"/><line style="stroke:#181818;stroke-width:1;" x1="409.0522" x2="1220.335" y1="1227.3125" y2="1227.3125"/><text fill="#000000" font-family="sans-serif" font-size="13" lengthAdjust="spacing" textLength="150.4585" x="416.0522" y="1222.2466">navigate('/shelters', id)</text><polygon fill="#181818" points="1453.7622,1252.4453,1463.7622,1256.4453,1453.7622,1260.4453,1457.7622,1256.4453" style="stroke:#181818;stroke-width:1;"/><line style="stroke:#181818;stroke-width:1;stroke-dasharray:2.0,2.0;" x1="1226.335" x2="1459.7622" y1="1256.4453" y2="1256.4453"/><text fill="#000000" font-family="sans-serif" font-size="13" lengthAdjust="spacing" textLength="150.6553" x="1233.335" y="1251.3794">ShelterDetailPage (M5)</text><path d="M192,1269.4453 L192,1309.4453 L625,1309.4453 L625,1279.4453 L615,1269.4453 L192,1269.4453 " fill="#FEFFDD" style="stroke:#181818;stroke-width:0.5;"/><path d="M615,1269.4453 L615,1279.4453 L625,1279.4453 L615,1269.4453 " fill="#FEFFDD" style="stroke:#181818;stroke-width:0.5;"/><text fill="#000000" font-family="sans-serif" font-size="13" lengthAdjust="spacing" textLength="412.623" x="198" y="1286.5122">M4 keeps the list/map read-only. Submission ("+ Add shelter"),</text><text fill="#000000" font-family="sans-serif" font-size="13" lengthAdjust="spacing" textLength="362.8257" x="198" y="1301.645">detail and reviews arrive in M5 (verified accounts only).</text><!--SRC=[dLNTZnet47_VlsB4GszNTt1LbMkhIqb4BXIT10fYaqfLrGVZ7S32s2lR2zeyv6_lp_lHWxichVg0LjZZcVbzU1nKq4mBKT9tzCxPasVwLTiJ3MbPhRMIbEzO1tOqLpxGDSrPR3I7vaIwU9KbYP31ElfDUOLlafJ21ILLAKoW0QAMOii34fuMoykzBl5C13w9kWd9PvSXar8zQCKcDBkJXylThfMStL79jiOylmnPsGebcgrLKeWWrW801tdfbDdIEsi3tOfItVgs5z_MMJucoNXCxtaZAXt8nIJtT7i0vF4uCJOmsICe0IBgQHgIiIIgi1lHRFhnCkjRRoidUJoPpybng9pnn4XGutWNGwdZBHXsDJYkFBjiH5CVh55YwAM0HB5xIdULAHmNFaF1i6CaM0kvPrDGmLgjsO5DNTCECD1FAROHPmszqWq7kHiAhKbvsYZ3sIY9voASf5EFXcy0Ykx9bcmQm0d-OZ6VOL6ZlnGOiWH_iJXvmEAMmo-Tak-3_UFFD-dLrx1VPGcEn8FBHvpy5ar931dsDSxpDodwZa9TSa72EL4tFVNj7opOy5tlynmh3b3PTObysfVCpjI4TuXqP- -ejOJn66IJDRqMb6eHwClTpwCVRqY3sYy_t8s-lw7FrXxe9p1AzC4mpKS7uVR8MUBNrNfDxHh81z6VykcAZd3bTFQOVrpzJYrsZmHWb0fGhOmCfAGr_dNKKkhA8qtKqp0N4NU01I1cuuypCG7uYOckfXOrMd4iYhgX1VkzvlSDs6logk2rS8tCZV_pfYLufJ4edF_S9HB6t-EIzSwzfKzmBZuJhGSaT-gbVNgy6H5T4QB1_31Mxihy7slrEV-hl_huRvZitynKQY5vqN9xPgPpvgiIDvQBbsotGA5Vfqt3zTGv6vdZGndYzJM5Zag3T849rD_noa11kHDh7M_-HVlmYM4P5BpACLVSVtZg1fEqBP4Q3YVhzXa2NhIs5aZYQ10DKHbn54h7MfWri1d6pT-DkCeOzFTsa80Qfi_iREzp_xmpqFaFfLgWFe0Z6fYdqt5O3QAN6re-n3bKS40ZNpTWTzTIsteNy_gKTNAj40GSQeioS4zVvEg6L94bgwQd9-cREl6zmijsXvVjsQHVlA8zSzao4IirBqAyKqDhT3sYl5eVbFTHWtHmJPEYw64DiXiaw828I20V5Pzyd5tgoAGCBUueHIcrKV5gIsah4pp5n6U3-Yy0]--></g></svg>